<svg width="147" height="120" viewBox="0 0 147 120" fill="none" xmlns="http://www.w3.org/2000/svg">
<path d="M120.584 91.423C121.623 72.7245 117.668 53.9602 103.183 40.065C90.1086 27.5231 72.3711 25.1597 63.9327 43.6589C59.938 52.416 61.3799 65.2717 70.3073 70.8408C80.2532 77.0453 88.0319 67.4889 87.7073 60C86.9494 42.5088 57.19 44.2536 36.8818 43.6589C12.8321 42.9547 1.00493 21.698 1.15291 21.6289" stroke="white" stroke-miterlimit="1.5" stroke-linecap="round" stroke-linejoin="round"/>
<path d="M137.377 77.7485C135.264 78.321 133.628 79.6527 131.924 80.9029C126.326 85.0077 121.673 91.107 120.551 97.8446C119.29 90.5722 115.053 81.552 107.435 78.7139" stroke="white" stroke-miterlimit="1.5" stroke-linecap="round" stroke-linejoin="round"/>
</svg>
